<svg xmlns="http://www.w3.org/2000/svg" viewBox="0 0 25.84 25.84"><defs><style>.cls-1{fill:#fff;}.cls-2{fill:#f89b21;}</style></defs><title>Asset 1</title><g id="Layer_2" data-name="Layer 2"><g id="Background_Image" data-name="Background Image"><path class="cls-1" d="M25.85,12.92q0,6.36,0,12.71c0,.16,0,.21-.2.21H.21c-.16,0-.19,0-.19-.19Q0,12.93,0,.2C0,0,.07,0,.23,0H25.65c.18,0,.21,0,.21.21Q25.85,6.57,25.85,12.92Z" transform="translate(-0.01 0)"/><path class="cls-2" d="M25.55,13A12.57,12.57,0,1,1,13,.41,12.58,12.58,0,0,1,25.55,13Z" transform="translate(-0.01 0)"/><path class="cls-1" d="M24.54,13A11.56,11.56,0,1,1,13,1.41,11.57,11.57,0,0,1,24.54,13Z" transform="translate(-0.01 0)"/><path class="cls-2" d="M23.44,13A10.48,10.48,0,1,1,13,2.47,10.48,10.48,0,0,1,23.44,13Z" transform="translate(-0.01 0)"/><path class="cls-1" d="M6.17,7.78c.26,0,13.25,0,13.51,0,0,.07-.07.1-.11.15l-5.66,5.66a2.54,2.54,0,0,1-.63.49.82.82,0,0,1-.83-.09,2.44,2.44,0,0,1-.43-.35L6.25,7.88Z" transform="translate(-0.01 0)"/><path class="cls-1" d="M19.66,18.11H6.21c0-.09.06-.12.1-.16l4.32-4.33c.13-.13.2-.13.33,0a9.23,9.23,0,0,0,1.13,1,1.24,1.24,0,0,0,1.7,0,11.55,11.55,0,0,0,1.15-1.06c.1-.11.16-.12.28,0Q17.4,15.8,19.59,18S19.69,18,19.66,18.11Z" transform="translate(-0.01 0)"/><path class="cls-1" d="M5.62,17.58V8.35c.11,0,.15.09.2.14l4.28,4.27c.15.15.14.22,0,.37L5.85,17.36Z" transform="translate(-0.01 0)"/><path class="cls-1" d="M20.24,17.56a2.28,2.28,0,0,1-.22-.21q-2.11-2.12-4.24-4.22c-.14-.15-.16-.22,0-.37l4.27-4.27.19-.18Z" transform="translate(-0.01 0)"/></g></g></svg>